<?xml version="1.0" standalone="no"?>
<!DOCTYPE svg PUBLIC "-//W3C//DTD SVG 20010904//EN"
 "http://www.w3.org/TR/2001/REC-SVG-20010904/DTD/svg10.dtd">
<svg version="1.0" xmlns="http://www.w3.org/2000/svg"
 width="500.000000pt" height="500.000000pt" viewBox="0 0 500.000000 500.000000"
 preserveAspectRatio="xMidYMid meet">
<metadata>
Created by potrace 1.14, written by Peter Selinger 2001-2017
</metadata>
<g transform="translate(0.000000,500.000000) scale(0.100000,-0.100000)"
fill="#000000" stroke="none">
<path d="M2348 4595 c-1 -1 -28 -6 -59 -9 -60 -7 -69 -9 -139 -25 -25 -5 -56
-12 -70 -15 -50 -9 -242 -79 -313 -113 -135 -65 -315 -194 -432 -310 -148
-145 -234 -260 -333 -443 -98 -182 -186 -488 -197 -690 -3 -36 -5 -67 -6 -70
-6 -25 9 -297 17 -311 2 -4 6 -24 10 -45 16 -109 21 -129 53 -229 41 -128 76
-216 116 -293 37 -72 67 -124 75 -132 3 -3 21 -30 40 -60 73 -115 242 -297
358 -382 31 -24 59 -45 62 -48 23 -25 131 -88 265 -154 151 -75 283 -113 485
-142 111 -16 391 -9 490 11 26 5 57 11 110 20 102 18 410 157 520 235 143 101
309 257 401 376 66 86 156 235 207 344 66 141 138 399 147 527 1 23 5 45 7 50
7 13 2 324 -7 388 -12 91 -53 273 -75 330 -7 17 -14 41 -16 54 -12 62 -98 235
-182 366 -71 112 -127 179 -241 293 -249 250 -559 403 -946 467 -42 7 -341 16
-347 10z m272 -79 c47 -3 96 -8 110 -11 14 -2 36 -7 50 -9 162 -27 387 -113
492 -187 14 -11 29 -19 33 -19 29 0 326 -246 377 -312 10 -13 42 -54 71 -93
150 -196 287 -509 313 -715 3 -25 7 -56 9 -70 24 -166 23 -347 0 -517 -3 -18
-7 -50 -10 -70 -20 -138 -134 -420 -234 -578 -85 -134 -236 -304 -341 -385
-25 -19 -49 -40 -55 -46 -37 -44 -264 -168 -417 -228 -78 -31 -244 -71 -343
-84 -75 -10 -333 -8 -400 2 -130 21 -268 58 -360 96 -76 32 -235 112 -280 141
-136 89 -314 257 -427 404 -12 17 -26 35 -31 40 -19 24 -116 196 -146 260 -53
110 -99 252 -117 355 -2 14 -9 48 -15 75 -15 73 -23 177 -23 285 1 93 12 269
19 280 2 3 6 21 9 40 5 31 51 218 60 245 14 45 81 194 109 245 16 30 35 64 41
75 6 11 14 22 17 25 3 3 12 16 19 30 16 32 126 170 182 231 77 83 288 259 311
259 3 0 38 19 79 43 198 115 409 180 632 193 56 4 102 8 103 9 3 2 50 -1 163
-9z"/>
<path d="M2318 4453 c-42 -5 -45 -9 -22 -34 9 -10 14 -30 12 -46 -3 -27 -4
-27 -35 22 -31 49 -34 50 -73 47 -46 -5 -59 -18 -35 -36 13 -9 17 -28 18 -77
0 -35 -3 -72 -7 -81 -7 -16 -3 -18 32 -16 57 2 71 12 51 35 -17 19 -31 63 -21
63 4 0 23 -20 42 -45 31 -40 39 -45 64 -40 16 3 31 6 32 8 1 1 -1 39 -5 83 -5
61 -3 84 6 93 15 14 8 32 -10 29 -7 -1 -29 -3 -49 -5z"/>
<path d="M2805 4400 c11 -33 -15 -121 -43 -147 -29 -26 -36 -22 100 -63 64
-19 95 -24 100 -17 4 6 2 17 -3 23 -12 15 24 125 46 137 26 14 16 26 -37 42
-28 8 -53 15 -54 15 -2 0 -2 -19 -1 -42 2 -38 0 -43 -18 -40 -34 6 -38 19 -16
51 20 28 21 30 4 39 -10 5 -33 13 -51 17 -32 7 -33 5 -27 -15z m94 -136 c8 -7
-30 -54 -44 -54 -15 0 -22 50 -8 63 6 6 42 0 52 -9z"/>
<path d="M2001 4391 c-43 -15 -67 -41 -39 -41 19 0 58 -122 46 -144 -15 -26
-5 -29 48 -14 45 13 72 38 40 38 -19 0 -60 128 -46 145 20 24 -5 33 -49 16z"/>
<path d="M3094 4326 c-3 -8 -3 -19 0 -24 8 -13 -43 -122 -60 -129 -26 -10 -14
-30 29 -47 55 -21 60 -20 52 5 -9 29 41 134 69 147 19 8 16 12 -32 36 -43 22
-53 24 -58 12z"/>
<path d="M1766 4283 c-48 -24 -49 -26 -27 -37 28 -15 74 -113 67 -142 -3 -11
-3 -23 0 -26 5 -5 129 55 147 71 4 4 0 24 -8 45 -20 48 -50 47 -50 -3 0 -54
-21 -47 -50 15 -21 44 -25 62 -17 75 10 16 6 30 -7 29 -3 -1 -28 -12 -55 -27z"/>
<path d="M3254 4211 c-26 -11 -55 -55 -65 -98 -6 -28 -3 -39 18 -64 14 -16 42
-37 62 -45 33 -14 37 -14 46 2 6 10 20 28 33 41 12 13 22 26 22 28 0 2 -16 11
-34 20 -39 19 -60 12 -51 -15 7 -22 -5 -32 -24 -20 -31 19 27 118 61 105 13
-5 16 -14 12 -30 -8 -33 32 -42 57 -12 26 31 24 39 -17 65 -41 27 -89 36 -120
23z"/>
<path d="M1536 4144 c-64 -52 -72 -73 -24 -65 15 2 79 -106 73 -121 -13 -33
15 -26 76 20 66 49 86 85 64 115 -6 9 -23 18 -36 21 -13 2 -23 9 -21 16 5 22
-28 60 -52 60 -14 0 -49 -20 -80 -46z m74 -39 c0 -27 -9 -32 -28 -13 -18 18
-14 38 8 38 15 0 20 -7 20 -25z m60 -61 c0 -20 -30 -30 -41 -13 -13 20 -11 27
9 32 22 5 32 -1 32 -19z"/>
<path d="M2315 4159 c-185 -26 -463 -130 -539 -201 -11 -10 -25 -18 -32 -18
-7 0 -14 -3 -16 -8 -1 -4 -34 -30 -73 -59 -38 -28 -89 -73 -112 -100 -23 -26
-58 -66 -77 -88 -133 -148 -267 -457 -292 -670 -13 -110 -7 -321 11 -385 2 -8
7 -31 10 -50 19 -115 149 -416 211 -490 13 -15 24 -31 24 -34 0 -11 137 -164
174 -195 10 -9 33 -28 50 -42 17 -14 49 -36 71 -49 22 -13 46 -30 54 -38 32
-31 264 -134 354 -157 131 -33 191 -40 347 -40 244 0 381 30 565 122 211 105
328 198 469 373 70 87 117 166 160 275 20 50 40 97 45 105 11 20 35 106 56
200 9 41 19 84 21 95 9 40 6 321 -4 360 -6 22 -13 54 -16 70 -22 133 -126 366
-218 488 -64 87 -220 244 -278 282 -25 17 -53 37 -62 46 -33 29 -197 110 -285
140 -191 66 -440 93 -618 68z m135 -150 c0 -72 -3 -99 -12 -100 -229 -18 -432
-96 -602 -230 -27 -22 -54 -39 -60 -39 -7 0 -43 30 -80 67 l-68 68 39 32 c157
135 391 247 573 277 19 3 53 8 75 12 22 3 41 7 42 7 1 1 22 3 47 4 l46 2 0
-100z m270 77 c47 -9 95 -18 108 -20 39 -8 144 -47 197 -74 59 -29 188 -103
195 -111 3 -3 23 -20 45 -36 22 -16 49 -41 61 -54 l21 -25 -58 -58 c-32 -32
-62 -58 -68 -58 -5 0 -20 18 -32 40 -36 64 -123 115 -178 104 -20 -4 -56 5
-117 29 -126 50 -220 75 -312 81 -34 3 -52 37 -53 103 -2 109 -6 102 54 98 29
-1 90 -10 137 -19z m-270 -341 l0 -93 -57 -7 c-115 -14 -163 -29 -265 -81 -82
-43 -111 -62 -150 -100 -21 -20 -24 -18 -105 63 -29 29 -50 59 -47 66 2 7 23
24 45 38 22 13 50 32 62 42 52 44 224 126 295 142 95 20 182 32 205 27 15 -4
17 -17 17 -97z m170 91 c59 -5 128 -21 233 -57 82 -27 139 -106 151 -206 3
-27 0 -33 -15 -33 -10 0 -23 9 -29 20 -15 28 -29 25 -25 -5 1 -14 -3 -25 -9
-25 -5 0 -44 17 -86 39 -85 43 -173 70 -251 75 -60 4 -67 13 -63 86 1 25 3 62
3 82 1 25 5 36 14 33 6 -2 41 -6 77 -9z m-919 -220 c22 -23 24 -39 6 -58 -138
-145 -257 -419 -271 -626 -2 -17 -5 -34 -8 -37 -7 -8 -172 -10 -184 -3 -27 18
6 227 61 378 64 179 120 276 232 406 l46 53 50 -47 c27 -26 58 -56 68 -66z
m1733 70 c14 -19 32 -40 39 -48 7 -7 24 -29 37 -48 13 -19 27 -37 30 -40 3 -3
11 -16 19 -29 50 -89 62 -113 76 -152 9 -24 21 -53 25 -64 14 -32 39 -116 49
-165 19 -87 22 -106 27 -182 5 -62 3 -78 -7 -79 -53 -2 -175 4 -180 9 -4 4 -9
34 -13 67 -3 33 -8 71 -10 85 -13 61 -29 126 -35 135 -3 6 -6 12 -6 15 -1 11
-59 165 -64 170 -4 3 -12 16 -19 30 -7 14 -44 58 -82 99 -39 41 -70 78 -70 83
0 6 28 35 62 66 33 32 66 62 72 69 16 18 21 16 50 -21z m-984 -190 c0 -102 2
-99 -60 -110 -54 -9 -147 -48 -196 -81 -28 -19 -54 -35 -57 -35 -8 0 -106 95
-126 122 -10 14 -6 20 32 47 106 72 221 123 310 136 23 4 43 8 44 9 1 1 13 2
27 4 l26 2 0 -94z m178 79 c38 -7 94 -23 125 -35 54 -20 205 -112 218 -133 6
-9 -110 -127 -133 -136 -5 -2 -18 6 -29 17 -36 40 -196 101 -274 106 -9 1 -15
131 -7 174 5 26 10 26 100 7z m471 -57 c6 -17 11 -39 11 -49 0 -11 17 -29 40
-44 22 -14 40 -29 40 -34 0 -5 22 -23 49 -41 28 -17 65 -48 83 -68 18 -20 40
-37 48 -36 8 0 21 -4 28 -9 28 -22 80 -263 73 -344 -1 -8 -28 -11 -93 -10
l-93 2 -7 40 c-4 22 -8 59 -9 83 -2 90 -43 24 -52 -83 -3 -35 -6 -40 -28 -41
-48 -1 -59 34 -18 63 42 31 61 81 61 164 1 58 -4 84 -15 97 -8 9 -19 33 -24
52 -6 24 -15 35 -27 35 -24 0 -132 156 -141 203 -5 27 -3 39 10 48 24 18 52 6
64 -28z m-1208 -88 c19 0 8 -39 -21 -76 -17 -22 -37 -48 -46 -59 -45 -58 -117
-251 -129 -346 -4 -30 -11 -56 -15 -59 -7 -5 -71 -5 -164 -1 -17 1 -18 7 -12
54 14 108 18 124 43 212 38 133 89 228 178 330 l48 54 55 -54 c30 -30 59 -55
63 -55z m132 -146 l66 -67 -32 -31 c-55 -52 -138 -120 -158 -130 -29 -14 -63
-76 -69 -126 -5 -46 -7 -47 -61 -41 -27 3 11 193 58 286 38 74 111 175 128
175 1 0 32 -30 68 -66z m1072 -29 c7 -17 11 -42 8 -58 -3 -15 -1 -27 4 -27 22
0 73 -62 83 -99 9 -33 8 -46 -5 -71 -19 -37 -45 -40 -45 -5 0 14 4 25 9 25 5
0 8 8 6 18 -2 9 -4 19 -4 22 -3 17 -43 29 -66 20 -16 -6 -25 -6 -26 0 -3 19
-5 25 -22 58 -10 17 -23 32 -30 33 -87 7 -125 13 -133 22 -4 4 28 41 72 82
l79 75 29 -33 c16 -17 34 -46 41 -62z m-647 -4 l-3 -66 -32 0 c-27 0 -35 -5
-42 -28 -6 -15 -17 -30 -26 -33 -24 -9 -125 6 -125 19 0 6 -12 21 -26 32 l-26
21 25 24 c49 48 209 115 245 102 10 -3 12 -23 10 -71z m244 26 c71 -34 92 -52
82 -69 -5 -7 -9 -21 -9 -32 0 -10 -9 -24 -19 -30 -11 -6 -35 -26 -53 -43 -39
-38 -37 -38 -68 -17 -13 9 -29 13 -35 9 -5 -3 -10 0 -10 8 0 7 11 20 24 27 25
13 34 28 42 68 6 28 0 28 -41 -4 -23 -17 -41 -24 -55 -19 -23 7 -22 4 -25 75
-1 30 2 60 7 66 11 15 84 -3 160 -39z m168 -116 c0 -5 -7 -11 -14 -14 -10 -4
-13 -1 -9 9 6 15 23 19 23 5z m-403 -91 c-6 -23 25 -50 56 -50 11 0 35 -17 54
-37 29 -32 34 -44 32 -78 -2 -22 5 -66 16 -97 17 -53 17 -58 2 -82 -10 -14
-28 -26 -44 -28 -19 -2 -32 -12 -42 -33 -8 -16 -18 -33 -23 -36 -13 -8 -64 -2
-105 13 -36 13 -45 38 -14 38 26 0 62 52 63 90 1 17 -1 33 -4 36 -13 12 -58
13 -67 2 -6 -7 -22 -27 -35 -44 -32 -39 -64 -44 -37 -5 28 41 31 57 11 74 -13
11 -17 24 -13 48 7 45 25 68 83 109 34 24 49 41 48 55 -2 20 8 45 19 45 3 0 3
-9 0 -20z m-496 -168 c1 -4 3 -27 4 -52 4 -56 -9 -83 -36 -75 -10 4 -20 2 -20
-4 -3 -26 -4 -30 -11 -37 -11 -10 -10 -24 2 -24 5 0 12 11 15 23 13 50 46 10
62 -75 3 -20 58 -116 80 -140 14 -16 9 -24 -68 -103 -46 -46 -87 -85 -92 -85
-4 0 -1 13 7 28 13 25 13 32 -1 58 -8 16 -17 43 -18 59 -11 93 -33 173 -56
198 -9 10 -19 33 -22 50 -4 26 1 38 27 63 17 16 39 33 50 37 11 4 16 13 12 22
-3 8 -9 21 -12 29 -3 8 4 24 15 35 17 17 25 19 41 11 11 -6 21 -14 21 -18z
m307 -55 c2 -8 12 -17 23 -20 28 -7 24 -28 -5 -23 -13 2 -40 1 -60 -4 -44 -10
-52 0 -31 39 12 24 20 29 42 27 16 -2 29 -10 31 -19z m-832 -72 c1 -22 7 -69
13 -105 14 -84 14 -82 -8 -75 -11 3 -26 -1 -35 -11 -9 -9 -24 -13 -33 -10 -22
9 -41 -10 -49 -49 -12 -68 30 -131 99 -149 15 -3 27 -11 27 -16 0 -6 7 -10 15
-10 8 0 15 -4 15 -10 0 -5 6 -10 13 -10 6 0 21 -14 32 -30 11 -16 25 -30 31
-30 9 0 47 -30 127 -103 l31 -28 -76 -76 -75 -75 -59 76 c-33 41 -76 103 -96
137 -70 116 -154 362 -165 484 -2 28 -6 66 -7 85 -2 19 -2 39 1 43 3 4 48 6
101 5 l96 -3 2 -40z m254 11 c0 -27 -5 -35 -24 -40 -34 -8 -96 -74 -96 -101 0
-13 -5 -36 -11 -52 l-11 -28 -14 32 c-13 31 -19 63 -29 176 l-5 47 95 0 95 0
0 -34z m106 22 c4 -6 3 -13 -2 -15 -6 -2 -9 -21 -8 -43 1 -22 -2 -43 -7 -46
-5 -3 -9 -2 -10 3 0 4 -2 28 -4 52 -3 24 -2 48 1 53 7 12 22 10 30 -4z m1419
0 c6 -6 -13 -109 -21 -117 -11 -11 -89 103 -79 118 4 8 93 7 100 -1z m239 3
c16 -1 18 -7 13 -63 -12 -122 -37 -221 -84 -318 -37 -78 -120 -205 -153 -235
-18 -16 -20 -15 -41 31 -12 27 -23 50 -25 52 -1 2 -11 -2 -22 -9 -16 -10 -23
-9 -43 10 -23 21 -23 22 -5 56 10 19 26 42 35 52 9 10 26 34 37 53 10 19 22
37 26 40 3 3 16 34 28 70 12 36 33 77 47 91 18 19 21 29 13 34 -14 9 -6 125 9
134 8 5 66 6 165 2z m244 0 l43 -1 -6 -72 c-4 -40 -8 -86 -10 -103 -7 -85 -94
-327 -149 -417 -42 -70 -167 -237 -177 -237 -3 -1 -38 33 -78 74 l-73 74 32
33 c37 38 118 158 141 208 70 149 105 276 118 427 1 14 23 19 76 17 22 -1 59
-2 83 -3z m-1571 -128 c3 -7 13 -13 23 -13 18 0 30 -19 30 -46 0 -8 -13 -29
-29 -46 l-28 -30 -30 43 c-41 61 -65 123 -51 137 12 12 76 -22 85 -45z m647
-65 c-4 -6 -2 -8 3 -5 15 9 34 -16 24 -31 -5 -9 -14 -5 -30 12 -21 23 -21 54
0 40 5 -3 6 -10 3 -16z m406 0 c0 -28 -90 -187 -127 -224 -24 -24 -24 -24 -31
-3 -8 19 -9 20 -22 4 -8 -10 -19 -27 -25 -38 -16 -34 -84 -35 -149 -3 -29 14
-58 26 -64 26 -7 0 -12 4 -12 9 0 15 30 21 51 11 10 -6 19 -9 19 -6 0 3 21 -1
48 -9 26 -8 54 -15 63 -15 19 0 47 38 53 72 3 13 5 23 6 23 1 0 4 15 6 33 3
17 1 32 -5 32 -17 0 -17 44 1 64 19 20 34 25 106 30 23 2 45 6 48 9 8 8 34 -3
34 -15z m-838 -21 c29 -13 65 -27 81 -31 21 -5 27 -12 27 -34 0 -15 3 -36 6
-48 4 -15 -1 -23 -20 -32 -18 -8 -26 -19 -26 -37 0 -18 -5 -25 -20 -25 -55 0
-210 83 -210 112 0 10 98 118 107 118 1 0 26 -10 55 -23z m582 -84 c-32 -23
-46 -14 -17 11 16 14 30 20 32 14 2 -6 -4 -17 -15 -25z m-211 1 c-10 -7 -23
-14 -30 -14 -18 0 -4 28 15 33 27 6 35 -4 15 -19z m43 -70 c-3 -9 -6 -19 -6
-24 0 -13 -120 -90 -140 -90 -9 0 -29 9 -42 20 -17 12 -34 17 -49 14 -64 -16
-76 -16 -82 -1 -4 11 4 20 24 29 16 7 29 16 29 20 0 16 60 39 78 29 26 -14 75
-16 96 -4 10 6 27 8 37 6 11 -3 19 0 19 6 0 6 9 11 21 11 15 0 19 -4 15 -16z
m-602 -28 c34 -25 114 -69 159 -86 l28 -10 -20 -28 c-33 -46 -36 -77 -11 -112
12 -17 20 -34 18 -39 -3 -9 -100 20 -168 51 -74 34 -170 104 -170 124 0 10
114 124 124 124 5 0 23 -11 40 -24z m937 -221 c16 -16 29 -35 29 -41 0 -6 7
-17 15 -24 12 -10 12 -15 -5 -33 -25 -26 -71 -57 -86 -57 -21 0 -22 38 -2 71
l20 33 -33 30 c-39 34 -41 44 -21 69 15 16 16 16 35 0 11 -10 33 -31 48 -48z
m-767 -135 c38 -7 79 -13 90 -14 19 -1 21 -7 21 -86 1 -84 -8 -116 -27 -104
-6 4 -38 9 -71 11 -33 2 -69 9 -78 14 -10 5 -25 9 -33 9 -28 0 -229 91 -285
129 -64 44 -121 92 -121 103 0 3 12 5 28 4 15 -2 38 1 52 7 14 5 36 10 50 11
23 2 75 25 57 26 -5 0 -6 4 -2 9 3 5 60 -17 128 -49 78 -37 147 -63 191 -70z
m-513 -24 c69 -62 250 -166 317 -181 9 -2 36 -11 59 -19 22 -9 54 -18 70 -21
69 -14 123 -22 147 -20 29 1 28 6 29 -120 l1 -80 -52 -1 c-178 -3 -491 117
-663 255 -117 94 -116 89 -39 166 36 35 69 64 74 64 4 1 30 -19 57 -43z m1455
-14 c96 -95 95 -81 7 -155 -174 -144 -460 -261 -675 -274 l-88 -6 -1 39 c-2
64 0 156 3 159 2 1 28 5 58 8 30 4 76 9 101 13 38 5 54 2 93 -19 40 -21 53
-24 77 -15 32 11 139 103 139 119 0 15 41 53 100 91 30 20 71 50 90 67 19 16
35 30 36 31 1 0 28 -26 60 -58z m-692 -7 c22 -5 27 -10 23 -27 -8 -27 8 -66
36 -88 28 -23 20 -31 -40 -36 -26 -2 -54 -6 -60 -9 -18 -6 -28 23 -26 75 0 25
2 57 2 72 1 19 6 25 19 23 9 -2 30 -7 46 -10z"/>
<path d="M2623 3979 c-29 -11 -53 -24 -53 -29 0 -12 37 -19 73 -13 18 2 45 4
60 4 15 -1 37 4 48 10 19 9 19 13 7 25 -24 24 -79 26 -135 3z"/>
<path d="M3104 3829 c-7 -12 25 -51 36 -44 12 7 0 43 -16 49 -7 3 -16 1 -20
-5z"/>
<path d="M3492 4083 c6 -26 -68 -117 -100 -124 l-27 -5 39 -37 c47 -43 56 -46
56 -13 0 13 7 29 15 36 13 10 19 10 35 -5 23 -21 13 -41 -28 -56 l-25 -10 39
-34 c46 -41 54 -42 54 -12 0 24 80 109 113 120 15 6 4 19 -55 70 -40 35 -84
69 -96 76 -21 11 -23 11 -20 -6z m92 -90 c-9 -47 -17 -52 -48 -28 -19 14 -19
15 -1 35 10 11 26 20 36 20 14 0 17 -6 13 -27z"/>
<path d="M1375 3993 c-11 -15 -42 -48 -68 -75 -27 -27 -47 -52 -44 -54 2 -3
15 -7 28 -9 13 -2 36 -18 51 -34 14 -16 38 -37 51 -46 23 -15 28 -15 55 -1 34
18 62 56 62 86 0 13 -22 43 -50 72 -27 27 -48 54 -45 58 3 4 -1 13 -8 18 -10
8 -18 4 -32 -15z m40 -94 c45 -42 55 -64 33 -72 -26 -8 -108 74 -108 108 0 17
36 0 75 -36z"/>
<path d="M1190 3764 c-9 -3 -34 -33 -56 -67 l-41 -62 26 -3 c14 -2 28 -7 31
-10 3 -4 24 -20 47 -35 22 -16 43 -37 46 -48 7 -28 27 -16 65 40 19 29 32 60
32 79 0 64 -87 125 -150 106z m72 -92 c22 -20 29 -34 25 -46 -6 -16 -10 -16
-44 5 -52 31 -73 50 -67 60 11 18 55 8 86 -19z"/>
<path d="M3855 2922 c-3 -3 -5 -32 -5 -64 0 -45 5 -63 20 -78 31 -31 55 -24
98 26 29 34 41 42 45 31 3 -8 -3 -23 -14 -33 -19 -17 -26 -43 -11 -45 4 0 16
-2 28 -4 46 -9 61 99 19 140 -36 37 -61 32 -97 -20 -18 -25 -35 -45 -40 -45
-15 0 -8 33 9 45 9 7 14 19 10 27 -5 15 -52 30 -62 20z"/>
<path d="M1078 2841 c-13 -15 -29 -18 -92 -17 l-77 1 3 -37 c2 -43 1 -43 31
-24 23 14 77 30 77 22 0 -3 -22 -17 -50 -32 -53 -29 -55 -31 -41 -53 8 -13 23
-17 79 -20 12 0 22 -5 22 -10 0 -12 -42 -19 -66 -11 -10 4 -22 6 -25 4 -12 -7
13 -84 27 -84 8 0 14 4 14 10 0 16 108 43 145 36 34 -7 34 -7 25 24 -10 33
-10 35 -10 50 0 6 -19 10 -43 10 -61 0 -65 11 -15 35 44 21 46 27 36 84 -6 32
-19 36 -40 12z"/>
<path d="M3834 2712 c2 -4 1 -27 -4 -50 -7 -42 -7 -43 14 -37 34 10 76 13 76
5 0 -4 -21 -15 -47 -25 -59 -22 -54 -17 -63 -65 -8 -45 0 -56 28 -39 24 15
141 -7 149 -28 10 -25 20 -13 30 38 9 41 8 52 -4 56 -8 3 -19 -1 -26 -9 -8
-10 -22 -13 -42 -8 l-30 6 45 21 c25 11 53 23 63 27 11 3 17 16 17 34 0 29 -1
30 -81 43 -45 7 -87 19 -95 26 -13 14 -38 18 -30 5z"/>
<path d="M1043 2511 c-68 -31 -83 -88 -38 -147 33 -44 73 -51 129 -25 74 36
85 98 26 161 -33 35 -58 37 -117 11z m101 -60 c13 -20 -8 -42 -53 -55 -32 -9
-50 -10 -59 -3 -16 12 -3 27 43 51 34 18 61 20 69 7z"/>
<path d="M3766 2419 c-62 -48 -54 -134 15 -170 72 -36 128 -19 149 47 16 47 6
78 -33 108 -44 34 -99 40 -131 15z m87 -64 c33 -14 52 -37 40 -49 -19 -19
-123 15 -123 40 0 25 35 29 83 9z"/>
<path d="M1230 2307 c0 -20 -121 -77 -141 -66 -30 15 -30 -5 0 -67 40 -82 83
-106 146 -78 79 35 89 69 47 159 -28 60 -52 84 -52 52z m25 -106 c0 -17 -61
-51 -91 -51 -41 0 -36 28 9 49 47 22 82 23 82 2z"/>
<path d="M3677 2220 l-26 -50 27 2 c33 2 117 -46 139 -79 l17 -25 23 47 c24
50 22 69 -5 61 -24 -7 -115 44 -127 72 -5 12 -13 22 -16 22 -3 0 -18 -23 -32
-50z"/>
<path d="M3590 2078 c-25 -40 -46 -74 -47 -77 -5 -11 57 -40 73 -34 13 5 13 8
-1 29 -18 29 -2 33 27 7 10 -9 28 -21 41 -27 12 -7 24 -24 27 -38 6 -33 15
-28 57 31 34 47 35 68 2 50 -17 -9 -30 -5 -75 25 -59 39 -67 52 -30 42 14 -3
28 0 35 8 9 11 6 18 -18 35 -16 12 -33 21 -38 21 -4 -1 -28 -33 -53 -72z"/>
<path d="M1327 2124 c-3 -3 -3 -12 -1 -19 3 -7 -14 -25 -40 -41 -25 -16 -46
-32 -46 -36 0 -5 -13 -8 -28 -8 -16 0 -31 -3 -34 -6 -9 -9 93 -139 106 -136 6
2 21 10 34 18 19 13 21 18 11 30 -7 8 -19 14 -28 12 -21 -3 -41 10 -41 28 0
20 47 18 58 -3 6 -10 16 -14 26 -10 16 6 16 9 2 29 -20 28 -20 34 1 42 20 8
36 -14 22 -30 -17 -20 24 -37 54 -23 l25 11 -52 74 c-51 73 -57 79 -69 68z"/>
<path d="M1460 1920 c0 -24 -86 -110 -111 -110 -11 0 -19 -3 -19 -7 0 -14 100
-113 113 -113 7 0 26 13 41 28 24 26 25 30 11 42 -12 10 -19 10 -27 2 -16 -16
-48 -15 -48 1 0 18 80 82 104 82 31 0 29 18 -9 58 -39 41 -55 46 -55 17z"/>
<path d="M3449 1899 l-22 -32 41 -82 c23 -46 42 -88 42 -94 0 -19 15 -12 44
18 28 29 28 58 0 47 -17 -7 -18 16 -2 32 20 20 36 14 40 -14 l3 -26 38 38 c39
39 46 54 25 54 -7 0 -47 20 -88 45 -41 25 -80 45 -87 45 -6 0 -22 -14 -34 -31z
m79 -73 c5 -24 -14 -19 -32 9 -16 24 -15 24 6 16 13 -5 24 -16 26 -25z"/>
<path d="M3297 1749 c-41 -34 -47 -49 -19 -49 10 0 29 -11 42 -25 28 -30 21
-31 -47 -6 l-51 19 -31 -32 c-36 -37 -39 -50 -11 -43 24 6 90 -69 99 -114 l6
-29 42 34 c42 33 46 46 13 46 -16 0 -50 29 -50 43 0 4 12 2 28 -4 61 -25 90
-27 107 -10 22 26 20 34 -35 99 -27 32 -47 62 -44 65 3 3 2 13 -3 21 -7 14
-14 11 -46 -15z"/>
<path d="M1738 1663 c7 -11 1 -33 -19 -74 -16 -32 -29 -66 -29 -77 0 -24 27
-48 69 -63 45 -16 70 0 101 63 14 28 33 56 43 62 25 16 20 29 -18 47 -38 18
-47 13 -51 -27 -6 -59 -60 -124 -79 -95 -8 13 43 118 61 125 24 9 16 20 -26
39 -51 22 -64 22 -52 0z"/>
<path d="M1950 1563 c0 -5 5 -14 12 -21 16 -16 -19 -129 -46 -147 -23 -17 -22
-18 23 -34 51 -17 64 -15 51 8 -7 14 -7 28 1 48 6 15 13 24 14 18 16 -63 32
-98 46 -106 40 -21 49 -12 84 98 9 28 23 54 31 57 26 10 15 24 -31 40 -42 14
-47 14 -52 0 -3 -9 -1 -19 4 -23 6 -4 5 -17 -2 -36 l-13 -29 -11 39 c-6 22
-11 45 -11 51 0 6 -6 16 -12 22 -18 14 -88 26 -88 15z"/>
<path d="M2801 1511 c-53 -18 -53 -18 -34 -37 25 -25 47 -105 39 -145 l-6 -31
43 7 c86 14 133 47 137 95 5 53 -1 73 -29 101 -34 34 -67 36 -150 10z m89 -33
c0 -2 7 -24 15 -50 12 -43 12 -49 -2 -63 -9 -9 -19 -13 -23 -8 -11 12 -38 111
-32 118 5 5 42 7 42 3z"/>
<path d="M2237 1484 c-4 -4 -2 -13 4 -20 15 -18 -5 -130 -26 -155 -15 -16 -15
-18 2 -23 52 -15 91 -15 97 -1 3 8 0 15 -6 15 -18 0 0 111 22 142 11 15 16 29
12 32 -15 9 -98 17 -105 10z"/>
<path d="M2679 1486 c-10 -9 -122 -17 -216 -16 l-103 1 0 -47 c0 -38 3 -45 16
-40 9 3 18 6 20 6 2 0 4 10 4 22 0 45 14 5 16 -45 1 -39 -4 -58 -18 -73 -24
-27 -18 -31 55 -32 59 -1 69 7 42 34 -10 10 -15 35 -15 75 0 64 5 73 20 35 13
-35 45 -28 46 10 2 44 3 46 18 31 22 -22 36 -133 19 -156 -16 -23 -4 -34 29
-26 27 6 84 13 116 14 18 1 22 7 22 35 0 46 -14 53 -45 22 -15 -15 -32 -23
-41 -19 -25 9 -11 37 21 43 17 3 29 9 28 13 -2 4 -3 12 -3 18 0 7 -11 9 -30 5
-23 -4 -32 -1 -37 10 -9 25 14 41 37 26 35 -22 50 -15 50 23 0 30 -3 35 -23
35 -13 0 -26 -2 -28 -4z"/>
<path d="M1130 4443 c-105 -45 -175 -80 -195 -98 -12 -11 -42 -38 -66 -60 -38
-34 -129 -153 -129 -169 0 -2 -5 -17 -12 -33 -6 -15 -12 -30 -12 -33 -1 -3 -4
-9 -7 -15 -12 -20 -33 -115 -26 -121 5 -5 87 58 196 151 12 11 60 72 106 135
46 63 104 140 129 170 26 30 51 60 56 67 16 19 -2 22 -40 6z"/>
<path d="M3862 4433 c76 -82 108 -119 108 -125 0 -4 6 -13 13 -20 30 -32 66
-86 60 -92 -4 -3 -2 -6 4 -6 6 0 23 -19 38 -42 30 -47 48 -64 114 -118 24 -19
56 -46 70 -60 33 -31 81 -63 87 -58 6 7 -25 120 -46 166 -54 116 -63 132 -71
132 -5 0 -9 6 -9 13 0 14 -90 102 -135 131 -59 39 -133 75 -184 90 -74 22 -79
20 -49 -11z"/>
<path d="M4320 4231 c0 -5 6 -16 13 -23 31 -34 94 -182 101 -238 5 -46 36
-168 67 -262 15 -49 23 -88 18 -88 -5 0 -9 4 -9 10 0 28 -157 184 -240 240
-95 62 -164 120 -190 158 -13 18 -27 29 -32 24 -13 -13 21 -91 80 -180 51 -77
193 -222 217 -222 11 0 150 -131 191 -180 12 -14 31 -33 43 -42 21 -18 21 -17
21 15 0 17 2 109 4 202 5 185 -1 240 -33 326 -26 68 -103 173 -163 222 -45 37
-88 55 -88 38z"/>
<path d="M656 4205 c-79 -53 -162 -164 -198 -261 -19 -53 -21 -81 -22 -287 -1
-126 1 -232 4 -237 3 -5 24 12 45 37 59 69 123 131 185 177 104 77 192 161
237 227 33 48 73 147 73 181 0 17 -5 14 -29 -18 -38 -52 -58 -69 -180 -154
-116 -81 -164 -127 -222 -212 -22 -32 -41 -58 -43 -58 -2 0 -1 11 2 25 2 14 7
25 11 25 3 0 7 10 7 23 1 12 15 68 32 125 17 56 33 115 36 130 2 15 5 27 6 27
1 0 3 15 6 34 5 37 20 75 70 174 19 37 30 67 25 67 -4 0 -25 -11 -45 -25z"/>
<path d="M4678 3875 c-4 -4 -2 -18 3 -32 13 -34 14 -169 3 -288 -5 -55 -9
-187 -8 -292 0 -106 -4 -193 -8 -193 -5 0 -8 6 -7 13 1 6 0 19 -3 27 -3 8 -13
40 -23 70 -24 76 -69 142 -152 225 -102 102 -194 187 -199 182 -4 -3 11 -45
83 -244 8 -23 24 -51 34 -62 10 -11 19 -25 19 -30 0 -6 6 -14 14 -18 35 -21
236 -362 236 -402 0 -6 5 -11 10 -11 6 0 10 9 10 19 0 22 35 141 55 186 39 88
60 156 81 258 13 65 13 250 0 287 -3 8 -7 27 -10 42 -7 40 -83 209 -109 241
-12 16 -25 25 -29 22z"/>
<path d="M335 3852 c-26 -18 -112 -227 -122 -296 -4 -23 -6 -93 -6 -156 1
-125 13 -186 68 -335 18 -49 41 -121 50 -160 17 -65 35 -105 35 -77 0 21 100
222 111 222 5 0 9 4 9 10 0 14 82 139 119 180 17 19 33 43 37 53 3 9 10 17 15
17 6 0 8 4 5 9 -4 5 -2 11 3 13 11 4 64 106 68 132 2 10 12 39 23 64 21 47 25
72 12 72 -7 0 -138 -121 -220 -202 -32 -32 -129 -166 -131 -181 0 -4 -7 -22
-14 -40 -8 -18 -17 -54 -21 -80 -12 -77 -24 -44 -18 50 7 123 6 281 -2 323
-11 56 -16 290 -7 343 8 47 5 53 -14 39z"/>
<path d="M4899 3208 c-5 -109 -25 -187 -81 -307 -12 -25 -22 -48 -23 -51 0 -3
-8 -18 -17 -35 -30 -58 -86 -220 -94 -275 -8 -58 -10 -67 -14 -75 -1 -3 -4 -9
-5 -15 -1 -5 -4 -13 -5 -17 -1 -5 -2 -11 -1 -15 0 -5 -3 -8 -9 -8 -5 0 -9 11
-8 25 1 14 5 25 8 25 6 0 3 136 -4 170 -3 14 -8 38 -12 54 -12 56 -109 247
-135 266 -4 3 -17 26 -29 53 -12 26 -26 50 -31 53 -5 3 -9 14 -9 25 0 10 -4
19 -9 19 -5 0 -7 -26 -5 -57 2 -32 6 -90 8 -130 2 -40 7 -80 10 -90 3 -10 7
-31 10 -46 3 -16 10 -43 15 -60 6 -18 12 -43 15 -57 2 -14 20 -77 41 -140 35
-110 38 -130 46 -307 1 -24 6 -43 10 -43 5 0 35 39 68 88 33 48 74 103 91 122
88 97 150 201 170 282 45 181 49 204 46 338 -1 74 -5 146 -9 160 -4 14 -9 37
-13 53 -8 37 -24 34 -25 -5z"/>
<path d="M119 3229 c0 -2 -2 -11 -4 -19 -1 -8 -6 -33 -9 -55 -4 -23 -9 -52
-11 -65 -7 -32 -7 -218 -1 -228 2 -4 8 -35 11 -67 14 -117 63 -242 130 -330
19 -25 35 -50 35 -55 0 -6 4 -10 9 -10 5 0 26 -24 47 -52 21 -29 41 -55 44
-58 3 -3 21 -29 39 -58 19 -29 38 -49 42 -45 5 5 11 45 13 88 4 70 9 106 16
125 1 3 2 8 1 12 0 4 6 27 13 50 13 39 46 159 50 183 1 6 5 15 8 21 4 6 9 21
12 35 2 13 14 59 25 102 11 44 22 96 23 118 2 21 5 39 8 39 3 0 6 8 7 18 0 9
3 45 5 79 5 65 -5 103 -15 61 -4 -12 -6 -24 -6 -26 0 -4 -35 -66 -41 -72 -9
-9 -30 -44 -40 -67 -5 -12 -28 -52 -51 -90 -38 -63 -95 -203 -82 -203 3 0 1
-6 -5 -12 -13 -17 -16 -197 -3 -231 7 -18 7 -27 1 -27 -14 0 -27 38 -39 108
-12 68 -18 97 -26 122 -3 10 -8 27 -10 38 -5 29 -53 147 -91 225 -18 37 -30
67 -27 67 3 0 1 6 -5 13 -13 17 -42 118 -47 170 -6 54 -13 88 -20 95 -3 3 -5
3 -6 1z"/>
<path d="M615 2559 c-3 -13 -7 -44 -10 -69 -2 -25 -7 -56 -10 -70 -4 -14 -8
-36 -10 -50 -2 -14 -11 -55 -18 -93 -14 -66 -16 -234 -3 -289 3 -15 21 -63 40
-107 19 -45 30 -84 25 -87 -5 -3 -12 3 -16 13 -4 10 -10 20 -13 23 -4 3 -25
33 -47 66 -44 68 -104 147 -115 152 -5 2 -8 7 -8 12 0 4 -36 45 -81 91 -98
101 -211 250 -230 302 -7 21 -20 37 -29 37 -13 0 -13 -1 0 -10 8 -5 10 -10 4
-10 -12 0 9 -179 25 -215 80 -176 115 -230 210 -324 96 -95 116 -111 253 -200
68 -44 138 -91 157 -105 37 -28 61 -33 57 -13 -1 6 -12 38 -24 70 -38 99 -44
134 -57 337 -4 47 -8 99 -9 115 -2 17 -7 66 -11 110 -4 44 -9 89 -11 100 -3
11 -7 36 -10 55 -3 19 -7 42 -10 50 -3 8 -8 26 -10 40 -3 14 -7 32 -11 40 -3
8 -7 21 -9 28 -5 25 -13 25 -19 1z"/>
<path d="M4398 2564 c-7 -11 -55 -204 -62 -249 -12 -80 -22 -172 -31 -310 -3
-49 -10 -112 -15 -140 -6 -27 -13 -68 -16 -90 -3 -22 -17 -69 -31 -103 -30
-76 -21 -93 27 -54 19 16 71 50 115 77 44 27 95 60 113 73 17 14 32 20 32 16
0 -5 4 -4 8 1 4 6 30 28 57 50 55 44 193 181 212 211 84 133 137 280 142 392
1 39 -1 72 -6 72 -4 0 -16 -21 -27 -48 -28 -72 -81 -145 -176 -243 -144 -148
-260 -286 -260 -308 0 -6 -4 -11 -10 -11 -5 0 -10 -7 -10 -15 0 -8 -4 -15 -10
-15 -5 0 -10 -6 -10 -13 0 -14 -35 -47 -51 -47 -6 0 -3 7 5 16 9 8 16 22 16
30 0 8 5 14 11 14 6 0 9 6 6 13 -2 6 1 23 8 37 20 39 42 167 39 225 -2 36 -14
130 -21 159 -2 12 -6 32 -8 46 -14 103 -41 225 -47 214z"/>
<path d="M799 2075 c-1 -5 0 -14 1 -20 1 -5 4 -19 6 -30 2 -11 8 -40 13 -65 6
-25 12 -63 15 -85 9 -66 33 -197 45 -240 26 -97 93 -209 173 -288 21 -21 36
-42 33 -48 -4 -5 -12 -3 -21 5 -8 8 -23 18 -34 21 -11 3 -20 10 -20 14 0 4
-16 16 -35 27 -19 10 -35 21 -35 25 0 17 -217 142 -340 194 -89 39 -244 155
-295 223 -19 23 -36 39 -38 35 -7 -11 48 -136 82 -188 72 -111 202 -232 326
-303 44 -26 82 -47 85 -48 6 -1 39 -13 65 -24 44 -19 121 -36 240 -56 65 -10
77 -12 138 -27 57 -14 69 -10 44 15 -64 64 -133 208 -211 441 -35 105 -122
294 -148 321 -7 7 -20 24 -28 36 -27 40 -59 75 -61 65z"/>
<path d="M4130 1912 c-46 -70 -87 -129 -90 -132 -18 -16 -42 -70 -80 -180 -49
-145 -128 -314 -164 -353 -26 -28 -50 -67 -42 -67 3 0 35 7 73 16 74 17 77 18
143 30 47 8 55 10 68 14 4 1 11 2 16 1 16 -3 207 60 239 79 18 11 46 26 62 33
61 28 240 188 298 267 36 50 107 190 107 212 0 14 -20 -1 -67 -51 -38 -38
-102 -92 -143 -119 -75 -49 -200 -117 -200 -107 0 2 -27 -11 -59 -30 -33 -19
-63 -35 -66 -35 -8 0 -156 -98 -165 -109 -14 -17 -134 -90 -139 -85 -3 3 12
22 34 42 96 87 185 251 199 367 2 19 7 42 10 52 5 18 9 46 22 138 3 27 12 71
19 97 6 26 12 48 11 48 -1 0 -39 -58 -86 -128z"/>
<path d="M1150 1565 c0 -8 5 -15 12 -15 6 0 8 -3 5 -7 -11 -10 119 -251 166
-309 41 -50 109 -102 128 -96 5 1 9 -1 9 -6 0 -8 35 -24 92 -42 84 -26 39 -35
-72 -14 -14 3 -41 7 -60 9 -19 3 -46 6 -60 9 -53 9 -157 19 -320 31 -30 3 -66
7 -80 10 -13 2 -42 7 -63 11 -50 7 -126 37 -194 74 -65 37 -65 19 2 -51 79
-83 260 -199 309 -199 10 0 25 -4 34 -9 70 -37 417 -31 510 9 13 6 40 13 60
16 21 3 44 9 52 14 14 7 85 25 139 35 45 8 40 29 -10 39 -31 6 -178 76 -206
99 -8 6 -56 51 -106 99 -51 48 -107 100 -124 117 -18 17 -30 31 -27 31 4 0 -6
10 -22 23 -16 12 -49 41 -74 65 -25 24 -57 50 -72 58 -25 13 -28 13 -28 -1z"/>
<path d="M3846 1569 c-10 -6 -26 -19 -35 -28 -10 -9 -44 -38 -76 -66 -33 -27
-76 -66 -96 -85 -20 -19 -68 -65 -107 -102 -38 -38 -76 -68 -83 -68 -7 0 -9
-3 -6 -7 14 -13 -195 -133 -232 -133 -5 0 -22 -5 -38 -11 l-28 -11 25 -12 c21
-11 79 -28 141 -40 8 -2 21 -5 29 -8 55 -20 181 -51 228 -56 72 -8 286 -8 332
0 140 25 301 117 413 236 26 28 47 56 47 61 0 5 -39 -10 -87 -35 -52 -26 -119
-51 -163 -60 -74 -15 -89 -17 -245 -29 -146 -11 -184 -14 -207 -19 -22 -5 -69
-12 -148 -21 -19 -3 -50 -7 -67 -10 -20 -4 -33 -2 -33 5 0 5 7 10 15 10 8 0
23 4 33 9 9 5 40 19 67 32 28 13 52 27 53 32 2 4 8 5 13 1 5 -3 9 0 9 7 0 7 3
10 6 6 9 -9 111 111 140 163 13 25 29 52 34 60 10 15 73 150 75 160 0 3 4 11
8 18 10 15 8 15 -17 1z"/>
<path d="M2106 1038 c-84 -11 -236 -63 -405 -139 -223 -101 -434 -116 -608
-44 -40 17 -50 5 -20 -21 48 -41 149 -103 179 -109 18 -4 38 -11 43 -14 13
-10 91 -32 135 -39 43 -7 130 -6 186 1 77 11 257 81 292 114 7 7 17 13 22 13
5 0 15 6 22 13 25 24 150 108 201 134 58 31 134 51 169 47 87 -12 86 -24 -6
-68 -126 -62 -446 -304 -446 -338 0 -11 25 -38 35 -38 4 0 13 -7 21 -15 23
-22 29 -20 76 32 122 133 199 200 336 291 119 80 155 94 204 77 38 -13 206
-129 268 -185 72 -64 220 -214 220 -222 0 -17 40 -7 69 18 39 33 39 50 -1 86
-18 16 -46 41 -63 56 -77 70 -253 191 -347 239 -67 33 -84 52 -50 54 111 7
139 4 196 -24 63 -30 149 -85 154 -99 2 -4 10 -8 17 -8 7 0 15 -4 17 -8 6 -15
99 -74 161 -101 103 -46 107 -48 157 -56 19 -4 51 -10 70 -14 39 -8 163 -6
198 3 12 3 30 8 40 10 96 22 263 108 289 148 19 31 10 36 -30 19 -117 -50
-244 -57 -398 -22 -57 13 -180 56 -234 81 -117 56 -253 106 -315 116 -19 3
-39 8 -43 11 -15 9 -274 4 -319 -6 -88 -20 -105 -20 -178 -6 -87 17 -232 23
-314 13z"/>
<path d="M2289 736 c-4 -4 -10 -57 -15 -127 -6 -94 3 -125 51 -173 27 -27 36
-58 11 -36 -15 11 -178 22 -203 12 -21 -7 -5 -21 17 -15 15 4 20 0 20 -16 0
-12 6 -21 16 -21 11 0 14 6 9 20 -5 15 -3 18 9 14 9 -3 16 -10 16 -15 0 -4 9
-13 21 -19 15 -9 24 -8 37 2 11 9 14 10 8 1 -4 -8 -2 -13 8 -13 8 0 18 5 21
10 3 6 11 10 17 10 12 0 -45 -57 -81 -80 -43 -28 -66 -48 -60 -54 5 -5 127 68
155 92 7 6 17 6 25 1 8 -5 10 -9 5 -9 -4 0 -1 -11 8 -25 9 -14 14 -25 10 -25
-4 0 -1 -6 5 -14 14 -17 74 -13 123 8 9 4 22 5 28 1 5 -3 10 -2 10 4 0 6 7 8
15 5 8 -4 15 -2 15 2 0 9 62 32 109 40 13 3 29 6 35 7 6 1 16 9 23 17 8 9 12
10 13 3 0 -6 9 -9 20 -6 15 4 19 11 15 24 -5 15 -3 18 12 12 10 -3 15 -3 11 2
-4 4 0 14 10 21 16 12 15 13 -5 14 -13 0 -23 -4 -23 -9 0 -4 -11 -7 -25 -5
-14 1 -42 -2 -61 -8 -20 -5 -46 -11 -57 -14 -19 -3 -86 -32 -96 -40 -2 -2 2
-10 9 -19 7 -9 9 -19 5 -23 -4 -4 -10 -1 -12 6 -3 7 -15 17 -27 22 -33 12 -28
38 10 56 28 13 73 57 113 110 12 15 3 76 -12 86 -9 5 -9 8 0 8 7 0 13 26 15
75 3 69 1 75 -17 76 -78 2 -156 0 -165 -6 -5 -3 -10 -3 -10 2 0 6 -184 14
-191 9z m101 -367 c0 -10 -7 -19 -15 -19 -9 0 -14 9 -13 24 3 28 28 24 28 -5z
m-120 15 c0 -8 -19 -13 -24 -6 -3 5 1 9 9 9 8 0 15 -2 15 -3z"/>
<path d="M2798 696 c-14 -8 -35 -22 -46 -32 -11 -11 -31 -28 -45 -39 -14 -11
-26 -26 -27 -33 0 -16 24 -4 93 48 28 21 54 37 58 34 14 -8 19 14 6 24 -9 8
-20 7 -39 -2z"/>
<path d="M2825 350 c3 -5 8 -10 11 -10 2 0 4 5 4 10 0 6 -5 10 -11 10 -5 0 -7
-4 -4 -10z"/>
</g>
</svg>
